<?xml version="1.0" encoding="UTF-8" standalone="no"?>
<svg
   xmlns:dc="http://purl.org/dc/elements/1.1/"
   xmlns:cc="http://creativecommons.org/ns#"
   xmlns:rdf="http://www.w3.org/1999/02/22-rdf-syntax-ns#"
   xmlns:svg="http://www.w3.org/2000/svg"
   xmlns="http://www.w3.org/2000/svg"
   xmlns:sodipodi="http://sodipodi.sourceforge.net/DTD/sodipodi-0.dtd"
   xmlns:inkscape="http://www.inkscape.org/namespaces/inkscape"
   width="165.83009"
   height="72.094727"
   viewBox="0 0 132.66407 57.675778"
   version="1.1"
   id="svg2985"
   inkscape:version="0.48.2 r9819"
   sodipodi:docname="Erstegroup-logo.svg">
  <metadata
     id="metadata2996">
    <rdf:RDF>
      <cc:Work
         rdf:about="">
        <dc:format>image/svg+xml</dc:format>
        <dc:type
           rdf:resource="http://purl.org/dc/dcmitype/StillImage" />
        <dc:title></dc:title>
      </cc:Work>
    </rdf:RDF>
  </metadata>
  <defs
     id="defs2994" />
  <sodipodi:namedview
     pagecolor="#ffffff"
     bordercolor="#666666"
     borderopacity="1"
     objecttolerance="10"
     gridtolerance="10"
     guidetolerance="10"
     inkscape:pageopacity="0"
     inkscape:pageshadow="2"
     inkscape:window-width="640"
     inkscape:window-height="480"
     id="namedview2992"
     showgrid="false"
     fit-margin-top="0"
     fit-margin-left="0"
     fit-margin-right="0"
     fit-margin-bottom="0"
     inkscape:zoom="0.31716166"
     inkscape:cx="82.548441"
     inkscape:cy="35.450002"
     inkscape:window-x="0"
     inkscape:window-y="0"
     inkscape:window-maximized="0"
     inkscape:current-layer="svg2985" />
  <g
     id="surface1"
     transform="translate(-354.90625,-268.32422)">
    <path
       style="fill:#0a4275;fill-opacity:1;fill-rule:nonzero;stroke:none"
       d="m 433.10547,281.72656 c 0,-1.51953 0.67969,-2.27734 2.19922,-2.27734 l 14,0 0,3.16015 c 0,1.51563 -0.76172,2.23829 -2.28125,2.23829 l -7.51953,0 0,4.59765 8.39843,0 0,5.19922 -8.39843,0 0,5 10,0 0,3.16016 c 0,1.51953 -0.76172,2.23828 -2.28125,2.23828 l -11.91797,0 c -1.51953,0 -2.19922,-0.75781 -2.19922,-2.28125 z m -2,-2.27734 0,3.23828 c 0,1.48047 -0.76172,2.16016 -2.23828,2.16016 l -3.16016,0 0,20.19531 -6.40234,0 0,-20.19531 -5.39844,0 0,-3.23829 c 0,-1.48046 0.76172,-2.16015 2.23828,-2.16015 z m -27.00391,-0.20313 c 5.32031,0 8.08203,0.60157 8.08203,3.08203 l 0,2.51954 -7.27734,0 c -1.96094,0 -2.52344,0.51953 -2.52344,1.55859 0,3.07812 11.1211,2.44141 11.1211,11.07812 0,4.1211 -2.36329,7.75782 -9.5586,7.75782 -4.72265,0 -8.4375,-0.75782 -8.4375,-3.07813 l 0,-2.51953 8.59375,0 c 1.76172,0 2.60156,-0.55859 2.60156,-1.80078 0,-3.35938 -11.07812,-2.71875 -11.07812,-11.59766 0,-3.91797 2.59766,-7 8.47656,-7 m -23.79687,5.60157 0,4.59765 3.64062,0 c 1.83985,0 3.27735,-0.23828 3.27735,-2.27734 0,-2 -1.4375,-2.32031 -3.27735,-2.32031 z m -6.39844,-3.1211 c 0,-1.51953 0.67969,-2.27734 2.19922,-2.27734 l 8.3164,0 c 5.83985,0 9.20313,2.67969 9.20313,7.71875 0,3.47656 -1.32422,5.71875 -4.48438,6.99609 l 5,9.75781 c 0.16016,0.36329 0.36329,0.72266 0.36329,1.1211 l -5.52344,0 c -1.15625,0 -1.63672,0 -2.19531,-1.16016 l -4.48047,-9.23828 -2,0 0,10.39844 -6.39844,0 z m -19,0 c 0,-1.51953 0.67969,-2.27734 2.19922,-2.27734 l 13.99609,0 0,3.16015 c 0,1.51563 -0.75781,2.23829 -2.27734,2.23829 l -7.51953,0 0,4.59765 8.39843,0 0,5.19922 -8.39843,0 0,5 9.99609,0 0,3.16016 c 0,1.51953 -0.75781,2.23828 -2.27734,2.23828 l -11.91797,0 c -1.51953,0 -2.19922,-0.75781 -2.19922,-2.28125 z m 39.04297,32.60938 c -0.78125,0 -1.48438,0.36328 -2.00391,0.83984 l 0,5.60156 c 0.51953,0.48047 1.22266,0.83985 2.00391,0.83985 1.55859,0 2.19531,-1.27735 2.19531,-3.61719 0,-2.34375 -0.63672,-3.66406 -2.19531,-3.66406 M 391.94531,326 l -1.80078,0 0,-13.00391 0.90234,0 c 0.63672,0 0.89844,0.33985 0.89844,0.83985 l 0,0.32031 c 0.5625,-0.66016 1.46094,-1.25781 2.60156,-1.25781 2.35938,0 3.46094,1.9375 3.46094,5.10156 0,3.16016 -1.10156,5.09766 -3.46094,5.09766 -1.14062,0 -2.03906,-0.59766 -2.60156,-1.25782 z m -3.99609,-13.00391 0,10.00391 -0.90235,0 c -0.63671,0 -0.8789,-0.33984 -0.8789,-0.82031 l 0,-0.33985 c -0.83985,0.91797 -1.86328,1.25782 -2.80078,1.25782 -1.96094,0 -2.92188,-1.19922 -2.92188,-3.0586 l 0,-7.04297 1.80078,0 0,6.96094 c 0,1.18359 0.67969,1.68359 1.82032,1.68359 0.73828,0 1.53906,-0.36328 2.10156,-0.84375 l 0,-7.80078 z M 376.88672,318 c 0,-2.46094 -0.48047,-3.76172 -2.20313,-3.76172 -1.69531,0 -2.19531,1.30078 -2.19531,3.76172 0,2.45703 0.5,3.75781 2.19531,3.75781 1.72266,0 2.20313,-1.30078 2.20313,-3.75781 m -6.26172,0 c 0,-2.80078 0.92187,-5.10156 4.05859,-5.10156 3.16407,0 4.06641,2.30078 4.06641,5.10156 0,2.79687 -0.90234,5.09766 -4.06641,5.09766 -3.13672,0 -4.05859,-2.30079 -4.05859,-5.09766 m -5.32031,5 0,-10.00391 0.90234,0 c 0.59766,0 0.85938,0.48047 0.89844,1.24219 0.78125,-1.04297 1.82031,-1.33984 2.58203,-1.33984 0.33984,0 0.69922,0.0781 0.69922,0.5 l 0,1.27734 -0.5,0 c -1.46094,0 -2.20313,0.36328 -2.78125,0.84375 l 0,7.48047 z m -1.97657,-1 c 0,0.87891 -1.03906,1.09766 -3.40234,1.09766 -3.39844,0 -5.01953,-2.01954 -5.01953,-6.5 0,-4.48047 1.62109,-6.5 5.01953,-6.5 2.36328,0 3.24219,0.21875 3.24219,1.09765 l 0,0.60156 -3.21875,0 c -2.20313,0 -3.08203,1.1211 -3.08203,4.80079 0,3.67968 0.8789,4.80078 3.08203,4.80078 l 1.5,0 0,-3.83985 c 0,-0.62109 0.21875,-0.96093 0.8164,-0.96093 l 1.0625,0 z m 0,0"
       id="path2988"
       inkscape:connector-curvature="0" />
    <path
       style="fill:#eb1923;fill-opacity:1;fill-rule:nonzero;stroke:none"
       d="m 487.57031,287.375 0,-2.92188 c 0,-2.76171 -2.24219,-5.00781 -5.0039,-5.00781 l -21.26954,0 c -2.76562,0 -5.0039,2.2461 -5.0039,5.00781 l 0,11 23.72656,0 0,1.66797 -23.72656,0 0,2.91797 c 0,2.76172 2.23828,5.00391 5.0039,5.00391 l 21.26954,0 c 2.76171,0 5.0039,-2.24219 5.0039,-5.00391 l 0,-11 -23.72656,0 0,-1.66406 z m -18.96094,-10.84766 c -0.92187,-0.9414 -1.38671,-2.07422 -1.38671,-3.39843 0,-1.29688 0.46484,-2.4336 1.375,-3.3711 0.92187,-0.94922 2.03906,-1.43359 3.33593,-1.43359 1.26953,0 2.38282,0.47265 3.3086,1.41797 0.92968,0.9414 1.40234,2.08984 1.40234,3.38672 0,1.32421 -0.46484,2.45703 -1.39062,3.39843 -0.92579,0.94532 -2.05079,1.41407 -3.32032,1.41407 -1.29687,0 -2.41406,-0.46875 -3.32422,-1.41407"
       id="path2990"
       inkscape:connector-curvature="0" />
  </g>
</svg>
