<?xml version="1.0" encoding="UTF-8" standalone="no"?>
<svg
   xmlns:dc="http://purl.org/dc/elements/1.1/"
   xmlns:cc="http://creativecommons.org/ns#"
   xmlns:rdf="http://www.w3.org/1999/02/22-rdf-syntax-ns#"
   xmlns:svg="http://www.w3.org/2000/svg"
   xmlns="http://www.w3.org/2000/svg"
   viewBox="0 0 839.05334 241.89333"
   height="241.89333"
   width="839.05334"
   xml:space="preserve"
   id="svg2"
   version="1.1"><metadata
     id="metadata8"><rdf:RDF><cc:Work
         rdf:about=""><dc:format>image/svg+xml</dc:format><dc:type
           rdf:resource="http://purl.org/dc/dcmitype/StillImage" /></cc:Work></rdf:RDF></metadata><defs
     id="defs6" /><g
     transform="matrix(1.3333333,0,0,-1.3333333,0,241.89333)"
     id="g10"><g
       transform="scale(0.1)"
       id="g12"><path
         id="path14"
         style="fill:#ffffff;fill-opacity:1;fill-rule:nonzero;stroke:none"
         d="M 0,1814.17 V 0 H 6292.91 V 1814.17 H 0" /><path
         id="path16"
         style="fill:#8bc72a;fill-opacity:1;fill-rule:nonzero;stroke:none"
         d="m 4920.28,745.391 c -64.92,0 -117.5,-52.602 -117.5,-117.539 0,-64.922 52.58,-117.532 117.5,-117.532 64.98,0 117.58,52.61 117.58,117.532 0,64.937 -52.6,117.539 -117.58,117.539 v 0" /><path
         id="path18"
         style="fill:#5e5e5d;fill-opacity:1;fill-rule:nonzero;stroke:none"
         d="m 5849.93,598.051 c -15.14,-1.719 -29.33,-2.5 -42.79,-2.5 -36.9,0 -62.53,8 -76.74,23.898 -14.3,16.762 -21.4,45.313 -21.4,85.551 v 357.38 h 172.36 v 74.17 H 5709 v 179.97 l -81.78,-51.56 V 741.539 692.48 c 0,-12.628 0.41,-23.128 1.3,-31.531 0.78,-8.359 1.61,-15.027 2.51,-20.14 0.77,-5.02 2.08,-10.457 3.75,-16.348 9.18,-31.832 27.25,-56.582 54.07,-74.211 27.72,-16.75 62.54,-25.168 104.5,-25.168 34.35,0 68.7,4.188 103.14,12.578 v 70.469 c -15.13,-4.188 -30.65,-7.57 -46.56,-10.078 v 0" /><path
         id="path20"
         style="fill:#5e5e5d;fill-opacity:1;fill-rule:nonzero;stroke:none"
         d="m 5341.65,1151.69 c -67.95,0 -134.66,-17.64 -200.06,-52.88 v -80.49 c 28.55,19.32 59.13,34.34 91.81,45.27 33.57,10.89 67.12,16.39 100.73,16.39 28.52,0 53.67,-5.07 75.43,-15.09 21.81,-9.24 36.94,-22.24 45.35,-39.04 4.19,-9.26 7.11,-20.15 8.78,-32.686 2.51,-11.789 3.75,-29.422 3.75,-52.867 V 911.32 c -30.16,0 -57,-0.816 -80.48,-2.492 -22.66,-0.828 -45.31,-2.98 -67.95,-6.265 -71.3,-10.133 -127.04,-33.559 -167.34,-70.473 -40.32,-36.891 -60.34,-83.031 -60.34,-138.418 0,-116.551 88.41,-174.84 265.45,-174.84 54.5,0 118.61,7.09 192.5,21.34 v 425.293 c 0,67.065 -18.49,115.335 -55.42,144.675 -34.35,27.73 -85.08,41.55 -152.21,41.55 z m 125.79,-552.331 c -15.91,-4.23 -33.93,-7.148 -54.07,-8.82 -19.32,-1.73 -38.63,-2.5 -57.9,-2.5 -64.55,0 -111.11,8.293 -139.65,25.102 -27.72,16.757 -41.51,44.89 -41.51,84.339 0,52.891 23.08,91.04 69.21,114.481 46.97,23.473 121.62,35.219 223.92,35.219 v -247.821 0" /><path
         id="path22"
         style="fill:#5e5e5d;fill-opacity:1;fill-rule:nonzero;stroke:none"
         d="m 2221.27,1140.38 c -10.1,1.66 -18.44,2.91 -25.17,3.7 -6.69,0.88 -13.43,1.3 -20.16,1.3 -97.27,0 -158.52,-48.65 -183.7,-145.95 v 137.12 h -203.8 V 533.852 h 212.63 V 788.09 c 0,54.508 11.32,96.004 33.92,124.543 23.54,28.445 57.1,42.754 100.71,42.754 30.2,0 58.75,-6.68 85.57,-20.102 v 205.095 0" /><path
         id="path24"
         style="fill:#5e5e5d;fill-opacity:1;fill-rule:nonzero;stroke:none"
         d="m 2686.75,1145.38 c -97.26,0 -158.52,-48.65 -183.7,-145.95 v 137.12 h -203.8 V 533.852 h 212.64 V 788.09 c 0,54.508 11.32,96.004 33.99,124.543 23.45,28.445 57.02,42.754 100.63,42.754 30.19,0 58.75,-6.68 85.58,-20.102 v 205.095 c -10.1,1.66 -18.45,2.91 -25.18,3.7 -6.69,0.88 -13.42,1.3 -20.16,1.3 v 0" /><path
         id="path26"
         style="fill:#5e5e5d;fill-opacity:1;fill-rule:nonzero;stroke:none"
         d="m 1672.15,1046 c -38.6,68.78 -114.91,103.13 -228.98,103.13 -45.3,0 -91.45,-5.01 -138.42,-15.08 -46.98,-9.24 -88.9,-22.23 -125.81,-38.98 V 955.387 c 36.91,15.918 73.8,27.711 110.74,35.234 37.72,8.395 74.23,12.579 109.46,12.579 35.21,0 60.38,-5.067 75.47,-15.091 15.94,-10.058 23.89,-26.418 23.89,-49.05 v -18.903 h -27.69 c -51.16,0 -97.26,-5.426 -138.38,-16.343 -41.1,-10.024 -76.32,-24.731 -105.72,-44.051 -29.32,-18.438 -51.96,-41.496 -67.92,-69.211 -15.92,-26.821 -23.91,-56.582 -23.91,-89.301 0,-62.121 24.32,-107.781 72.97,-137.121 49.48,-28.559 117.47,-42.797 203.85,-42.797 53.66,0 104.86,2.477 153.51,7.578 48.69,4.211 93.09,10.852 133.35,20.07 v 338.497 c 0,41.957 -2.09,74.214 -6.27,96.82 -3.35,23.543 -10.04,44.053 -20.14,61.703 z m -255.3,-393.191 c -56.82,0 -89.45,36.953 -89.45,72.562 0,43.359 41.3,87.719 145.08,87.719 h 26.38 l 0.06,-153.61 c -28.82,-5.218 -52.91,-6.671 -82.07,-6.671 v 0" /><path
         id="path28"
         style="fill:#5e5e5d;fill-opacity:1;fill-rule:nonzero;stroke:none"
         d="M 722.773,808.148 885.047,533.891 h 256.723 l -110.76,148.468 c -20.1,27.653 -36.01,49.11 -47.791,64.192 -11.742,15.91 -21.781,28.91 -30.196,38.988 -8.371,10.082 -16.765,18.891 -25.175,26.422 -7.52,8.391 -18,18.406 -31.469,30.16 10.941,8.402 20.137,16.379 27.68,23.895 8.41,8.418 17.23,18.535 26.461,30.242 9.242,11.742 19.742,25.984 31.429,42.801 12.598,17.629 27.681,40.23 45.331,67.941 l 84.27,129.6 H 866.18 L 722.773,869.836 V 1422.17 H 510.094 V 533.891 h 212.679 v 274.257" /><path
         id="path30"
         style="fill:#5e5e5d;fill-opacity:1;fill-rule:nonzero;stroke:none"
         d="m 2810.04,533.891 h 212.62 V 1136.6 H 2810.04 V 533.891" /><path
         id="path32"
         style="fill:#5e5e5d;fill-opacity:1;fill-rule:nonzero;stroke:none"
         d="m 2915.74,1210.68 c 64.96,0 117.54,52.6 117.54,117.58 0,64.88 -52.58,117.5 -117.54,117.5 -64.94,0 -117.58,-52.62 -117.58,-117.5 0,-64.98 52.64,-117.58 117.58,-117.58 v 0" /><path
         id="path34"
         style="fill:#5e5e5d;fill-opacity:1;fill-rule:nonzero;stroke:none"
         d="m 4147.94,1145.38 c -97.3,0 -158.56,-48.65 -183.73,-145.95 v 137.12 H 3760.34 V 533.852 h 212.69 V 788.09 c 0,54.508 11.32,96.004 33.94,124.543 23.52,28.445 57.04,42.754 100.68,42.754 30.21,0 58.78,-6.68 85.6,-20.102 v 205.095 c -10.12,1.66 -18.48,2.91 -25.16,3.7 -6.78,0.88 -13.47,1.3 -20.15,1.3 v 0" /><path
         id="path36"
         style="fill:#5e5e5d;fill-opacity:1;fill-rule:nonzero;stroke:none"
         d="m 4814.06,822.023 c 1.68,12.582 2.52,28.911 2.52,49.063 0,41.129 -7.11,78.449 -21.41,112.012 -13.36,34.342 -32.68,63.672 -57.82,88.052 -24.35,25.15 -54.1,44.41 -89.38,57.88 -34.4,13.42 -72.55,20.1 -114.52,20.1 -42.74,0 -82.57,-7.52 -119.52,-22.59 -36.01,-15.15 -67.01,-36.5 -93.12,-64.21 -26,-26.83 -46.5,-59.13 -61.59,-96.865 -14.3,-36.91 -21.4,-77.578 -21.4,-122.047 0,-50.359 10.08,-97.758 30.17,-142.168 20.15,-43.648 48.22,-80.109 84.35,-109.531 31.84,-25.09 66.29,-43.207 103.13,-54.059 37.75,-10.859 83.52,-16.328 137.18,-16.328 57.99,0 115.35,7.406 172.03,22.109 -13.63,25.079 -21.4,53.829 -21.4,84.411 0,20.097 3.41,39.519 9.61,57.519 -41.55,-9.539 -84.04,-14.351 -127.57,-14.351 -50.31,0 -90.14,8.41 -119.47,25.21 -28.55,17.602 -44.95,42.329 -49.12,74.168 h 346 c 5.9,21.821 9.67,39.063 11.33,51.625 z m -183.05,55.481 h -181.18 c -2.71,53.238 22.25,125.586 89.25,125.586 101.39,0 94.38,-103.395 91.93,-125.586 v 0" /><path
         id="path38"
         style="fill:#5e5e5d;fill-opacity:1;fill-rule:nonzero;stroke:none"
         d="m 3602.5,1071.15 c -24.33,25.15 -54.13,44.48 -89.36,57.88 -34.39,13.42 -72.54,20.16 -114.52,20.16 -42.79,0 -82.57,-7.62 -119.53,-22.65 -36.06,-15.1 -67.06,-36.54 -93.08,-64.21 -26.06,-26.83 -46.56,-59.13 -61.65,-96.865 -14.28,-36.91 -21.42,-77.578 -21.42,-122.047 0,-50.316 10.1,-97.707 30.2,-142.168 20.13,-43.648 48.27,-80.109 84.28,-109.469 31.93,-25.203 66.32,-43.211 103.23,-54.121 37.68,-10.898 83.51,-16.328 137.16,-16.328 66.23,0 131.63,9.656 196.26,28.918 v 144.672 c -52.82,-15.91 -107.33,-23.902 -163.59,-23.902 -50.3,0 -90.18,8.41 -119.51,25.16 -28.51,17.59 -44.9,42.34 -49.07,74.281 h 345.96 c 5.94,21.82 9.69,39 11.36,51.562 1.67,12.637 2.5,28.969 2.5,49.063 0,41.074 -7.08,78.394 -21.4,111.961 -13.34,34.443 -32.66,63.793 -57.82,88.103 z M 3496.13,877.504 h -181.22 c -2.61,53.297 22.28,125.536 89.35,125.536 101.36,0 94.37,-103.345 91.87,-125.536 v 0" /></g></g></svg>