<?xml version="1.0" encoding="UTF-8" standalone="no"?>
<svg
   xmlns:dc="http://purl.org/dc/elements/1.1/"
   xmlns:cc="http://creativecommons.org/ns#"
   xmlns:rdf="http://www.w3.org/1999/02/22-rdf-syntax-ns#"
   xmlns:svg="http://www.w3.org/2000/svg"
   xmlns="http://www.w3.org/2000/svg"
   viewBox="0 0 395.17499 88.587502"
   height="88.587502"
   width="395.17499"
   xml:space="preserve"
   version="1.1"
   id="svg2"><metadata
     id="metadata8"><rdf:RDF><cc:Work
         rdf:about=""><dc:format>image/svg+xml</dc:format><dc:type
           rdf:resource="http://purl.org/dc/dcmitype/StillImage" /></cc:Work></rdf:RDF></metadata><defs
     id="defs6" /><g
     transform="matrix(1.25,0,0,-1.25,0,88.5875)"
     id="g10"><g
       transform="scale(0.1,0.1)"
       id="g12"><path
         id="path14"
         style="fill:#70612f;fill-opacity:1;fill-rule:nonzero;stroke:none"
         d="m 439.82,449.094 c 0.078,-1.164 0.141,-2.321 0.129,-3.496 -0.562,-64.575 -17.883,-125.035 -47.761,-177.457 40.019,-14.883 83.3,-23.086 128.57,-23.086 42.164,0 82.523,7.308 120.226,20.336 -40.796,84.004 -112.875,150.097 -201.164,183.703" /><path
         id="path16"
         style="fill:#7b5a2c;fill-opacity:1;fill-rule:nonzero;stroke:none"
         d="M 392.867,463.672 C 345.742,430.043 306.855,385.746 279.84,334.324 c 32.933,-28.23 70.89,-50.793 112.355,-66.215 29.899,52.442 47.239,112.938 47.801,177.532 0.008,1.214 -0.062,2.402 -0.133,3.613 -15.218,5.781 -30.898,10.633 -46.996,14.418" /><path
         id="path18"
         style="fill:#6dbf2a;fill-opacity:1;fill-rule:nonzero;stroke:none"
         d="M 553.949,708.66 C 451.836,684.711 366.02,618.809 316.094,530.215 c 46.312,-17.418 88.187,-43.75 123.535,-76.914 0.016,-1.414 0.105,-2.817 0.191,-4.207 88.289,-33.606 160.36,-99.699 201.16,-183.703 15.465,5.336 30.524,11.539 45.004,18.75 14.407,39.3 22.676,81.539 22.676,125.793 0,123.211 -61.164,232 -154.711,298.726" /><path
         id="path20"
         style="fill:#b366aa;fill-opacity:1;fill-rule:nonzero;stroke:none"
         d="m 520.758,245.055 c -45.274,0 -88.551,8.246 -128.574,23.121 C 356.941,206.348 304.223,155.719 240.723,122.859 244.176,93.793 251.035,65.7539 260.813,39.0859 310.59,14.3008 366.578,0 426.035,0 c 97.086,0 185.164,37.5 251.149,98.3438 0.062,2.5902 0.394,5.0972 0.394,7.7032 0,57.137 -13.18,111.16 -36.582,159.344 -37.703,-13.028 -78.074,-20.336 -120.238,-20.336" /><path
         id="path22"
         style="fill:#f1dd07;fill-opacity:1;fill-rule:nonzero;stroke:none"
         d="m 279.871,334.352 c -3.461,2.968 -6.906,5.961 -10.266,9.046 -0.05,2.579 -0.386,5.098 -0.386,7.7 0,65.07 17.027,126.144 46.875,179.117 -39.438,14.836 -82.078,23.219 -126.742,23.609 C 129.898,554.34 73.7813,540.527 23.7969,516.172 9.03906,476.992 0.402344,434.828 0.015625,390.57 -1.07422,267.375 59.1328,158.063 152.102,90.5234 c 31.211,7.0313 60.925,18.0076 88.621,32.3356 -1.641,13.786 -2.586,27.786 -2.586,42.024 0,61.18 15.101,118.785 41.734,169.469" /><path
         id="path24"
         style="fill:#cd6218;fill-opacity:1;fill-rule:nonzero;stroke:none"
         d="m 279.883,334.34 c -26.637,-50.672 -41.742,-108.277 -41.742,-169.457 0,-14.238 0.941,-28.227 2.582,-42.012 63.5,32.856 116.218,83.477 151.461,145.305 -41.442,15.398 -79.379,37.953 -112.301,66.164" /><path
         id="path26"
         style="fill:#7fa92b;fill-opacity:1;fill-rule:nonzero;stroke:none"
         d="m 279.895,334.363 c 27.003,51.383 65.863,95.653 112.953,129.246 16.09,-3.781 31.757,-8.629 46.972,-14.414 -0.086,1.364 -0.175,2.723 -0.191,4.106 -35.348,33.164 -77.223,59.496 -123.535,76.914 -29.848,-52.973 -46.875,-114.047 -46.875,-179.117 0,-2.602 0.336,-5.121 0.386,-7.7 3.36,-3.085 6.825,-6.062 10.29,-9.035" /><path
         id="path28"
         style="fill:#46463e;fill-opacity:1;fill-rule:nonzero;stroke:none"
         d="m 905.52,204.828 54.515,0 0,88.895 57.285,0 c 61.81,0 85.77,39.238 85.77,79.515 0,40.274 -23.96,79.516 -85.77,79.516 l -111.8,0 0,-247.926 z m 54.515,205.563 42.365,0 c 25.34,0 47.91,-5.563 47.91,-37.153 0,-31.597 -22.57,-37.16 -47.91,-37.16 l -42.365,0 0,74.313 z M 1236.77,274.273 c 0,-10.757 -1.38,-41.32 -39.93,-41.32 -15.97,0 -30.2,4.52 -30.2,22.926 0,18.047 13.88,23.262 29.16,26.387 15.28,2.773 32.64,3.121 40.97,10.41 l 0,-18.403 z m -64.58,54.864 c 1.74,19.449 13.89,27.086 32.64,27.086 17.36,0 31.94,-3.125 31.94,-24.305 0,-20.141 -28.12,-19.102 -58.33,-23.609 -30.56,-4.172 -61.12,-13.895 -61.12,-54.516 0,-36.813 27.09,-53.82 61.12,-53.82 21.87,0 44.79,5.894 60.42,22.215 0.34,-5.899 1.74,-11.797 3.47,-17.36 l 50,0 c -4.51,7.297 -6.25,23.613 -6.25,39.938 l 0,93.398 c 0,43.059 -43.06,51.047 -78.82,51.047 -40.28,0 -81.6,-13.891 -84.37,-60.074 l 49.3,0 z m 306.94,55.215 -48.96,0 -37.85,-122.575 -0.69,0 -37.85,122.575 -51.73,0 61.45,-179.524 54.86,0 60.77,179.524 z m 187.15,-101.747 c 3.48,55.211 -26.04,106.606 -87.14,106.606 -54.53,0 -91.68,-40.973 -91.68,-94.797 0,-55.551 35.08,-94.441 91.68,-94.441 40.62,0 70.14,18.054 84.02,60.414 l -43.4,0 c -3.12,-11.114 -19.1,-23.262 -38.89,-23.262 -27.43,0 -42.71,14.23 -44.1,45.48 l 129.51,0 z m -129.51,31.258 c 0.7,13.887 9.72,38.188 40.98,38.188 23.95,0 34.72,-13.188 39.23,-38.188 l -80.21,0 z m 160.07,-109.035 49.3,0 0,247.926 -49.3,0 0,-247.926 z m 92.71,0 49.29,0 0,61.809 19.1,18.402 49.32,-80.211 59.71,0 -75.34,113.539 67.71,65.985 -58.34,0 -62.16,-64.59 0,132.992 -49.29,0 0,-247.926 z m 303.12,69.445 c 0,-10.757 -1.39,-41.32 -39.92,-41.32 -15.98,0 -30.22,4.52 -30.22,22.926 0,18.047 13.89,23.262 29.17,26.387 15.28,2.773 32.64,3.121 40.97,10.41 l 0,-18.403 z m -64.58,54.864 c 1.73,19.449 13.89,27.086 32.64,27.086 17.36,0 31.94,-3.125 31.94,-24.305 0,-20.141 -28.12,-19.102 -58.33,-23.609 -30.56,-4.172 -61.11,-13.895 -61.11,-54.516 0,-36.813 27.09,-53.82 61.11,-53.82 21.89,0 44.8,5.894 60.42,22.215 0.34,-5.899 1.74,-11.797 3.48,-17.36 l 50,0 c -4.51,7.297 -6.26,23.613 -6.26,39.938 l 0,93.398 c 0,43.059 -43.05,51.047 -78.82,51.047 -40.28,0 -81.6,-13.891 -84.37,-60.074 l 49.3,0 z m 151.73,-50.696 104.51,0 0,42.364 -104.51,0 0,-42.364 z m 142.36,-73.613 106.96,0 c 75.68,0 112.49,53.473 112.49,125.352 0,82.297 -48.27,122.574 -112.49,122.574 l -106.96,0 0,-247.926 z m 54.51,202.086 38.9,0 c 54.17,0 71.52,-31.937 71.52,-81.937 0,-54.864 -30.2,-74.313 -61.8,-74.313 l -48.62,0 0,156.25 z m 367.72,-124.309 c 3.47,55.211 -26.05,106.606 -87.16,106.606 -54.5,0 -91.67,-40.973 -91.67,-94.797 0,-55.551 35.08,-94.441 91.67,-94.441 40.63,0 70.15,18.054 84.03,60.414 l -43.4,0 c -3.12,-11.114 -19.1,-23.262 -38.89,-23.262 -27.43,0 -42.71,14.23 -44.09,45.48 l 129.51,0 z m -129.51,31.258 c 0.69,13.887 9.71,38.188 40.96,38.188 23.96,0 34.73,-13.188 39.24,-38.188 l -80.2,0 z m 158.68,-109.035 49.31,0 0,94.102 c 0,36.457 11.45,51.39 38.19,51.39 22.92,0 31.59,-14.59 31.59,-44.097 l 0,-101.395 49.32,0 0,110.426 c 0,44.441 -13.21,73.957 -65.63,73.957 -20.84,0 -42.36,-9.731 -54.87,-29.859 l -1.03,0 0,25 -46.88,0 0,-179.524 z m 210.4,0 49.32,0 0,61.809 19.1,18.402 49.29,-80.211 59.73,0 -75.35,113.539 67.71,65.985 -58.34,0 -62.14,-64.59 0,132.992 -49.32,0 0,-247.926" /></g></g></svg>